<?xml version="1.0" encoding="utf-8"?>
<!-- Generator: Adobe Illustrator 22.0.1, SVG Export Plug-In . SVG Version: 6.00 Build 0)  -->
<svg version="1.1" id="Layer_1" xmlns="http://www.w3.org/2000/svg" xmlns:xlink="http://www.w3.org/1999/xlink" x="0px" y="0px"
	 viewBox="0 0 864 864" style="enable-background:new 0 0 864 864;" xml:space="preserve">
<style type="text/css">
	.st0{fill:#FFFFFF;}
	.st1{fill:#004E7F;}
	.st2{fill:none;stroke:#004E7F;stroke-width:21;stroke-linecap:round;stroke-miterlimit:10;}
	.st3{fill:#C4005B;}
	.st4{fill:none;stroke:#004E7F;stroke-width:6;stroke-linejoin:round;stroke-miterlimit:10;}
	.st5{fill:#F5F5F5;}
	.st6{fill:#FF5733;}
	.st7{fill:#F15A24;}
	.st8{fill:#FF7664;}
	.st9{fill:#5D6D7E;}
	.st10{fill:#F2DFDA;}
	.st11{fill:#DAE1EA;}
	.st12{fill:#F7931E;}
	.st13{fill:#F2AF6B;}
</style>
<g>
	<polygon class="st5" points="790.5,638.7 790.5,225.3 432.4,18.5 74.3,225.3 74.3,638.7 432.4,845.5 	"/>
</g>
<g>
	<path class="st9" d="M432,66.5l316.5,182.8v365.5L432,797.5L115.5,614.8V249.2L432,66.5 M432,6L63.1,219v426L432,858l368.9-213V219
		L432,6L432,6z"/>
</g>
<path class="st7" d="M613.1,569.2l11.2,19l0.8,1.4l-0.1,1.6l-2.4,55.9l41.6-22l2.3-36.4h-19.1l18.1-13l-51.8-88l-44.1,6.9l29.3,50.5
	l3.5,5.9l-6.5,2.2c-14.3,4.8-28.9,8.9-43.2,12.3l-5.2,1.2l-1.4-5.2l-16.3-62l-46.1-11.5l20.9,80.1l1.6,6.1l-6.2,0.8
	c-12.7,1.6-25.9,2.8-39.1,3.5l-5.8,0.3v-5.8v-78.8h-41.9v78.6v5.8l-5.8-0.3c-13.4-0.7-26.8-2-39.9-3.8l-6.2-0.8l1.6-6l17.4-66.5
	l-43-0.7l-15.8,60.2l-1.4,5.2l-5.3-1.3c-14.2-3.4-28.5-7.6-42.6-12.4l-6.4-2.2l3.4-5.8l29.5-49.7l-45.4-5.9l-51.8,88l18.1,13h-19.4
	v36.4l41.9,22.1v-56.3v-1.5l0.8-1.3l12.2-20.8l2.3-3.9l4.3,1.5c16,5.6,32.4,10.5,48.8,14.5l5.5,1.3l-1.4,5.4l-7.3,27.6l25.3,14.6
	h-26.1v61l39.4,21.9l2.5-88.7l0-0.6l0.2-0.6l7.4-28.1l1.2-4.7l4.9,0.7c15.3,2.1,30.7,3.6,46,4.4l5.3,0.3l-0.1,5.3l-2.7,144.7
	l20.9,11.1l21-11.2l2.7-144.8l0.1-5.2l5.2-0.2c15.3-0.7,30.5-2.1,45.2-4.1l4.8-0.7l1.2,4.7l7,26.7l0.2,0.8l0,0.8l-2.5,88.4l41.7-22
	l2.4-60.9h-25.7L560,614l-6.8-26l-1.4-5.5l5.5-1.3c16.8-4,33.4-8.9,49.4-14.4l4.3-1.5L613.1,569.2z"/>
<g>
	<g>
		<path class="st7" d="M511,345.5h-56V185.4h-84.3c-11.2,0-19.2,2.2-24,6.5s-7.2,9.9-7.2,16.7c0,7,2.4,12.6,7.3,17
			c4.9,4.3,12.8,6.5,23.9,6.5h37.6v113.4h-56c-11.2,0-19.2,2.2-24,6.5s-7.2,9.9-7.2,16.7c0,7,2.4,12.6,7.2,17
			c4.8,4.3,12.8,6.5,24,6.5H511c11.2,0,19.2-2.2,24-6.5c4.8-4.3,7.2-9.9,7.2-16.7c0-7-2.4-12.6-7.2-17
			C530.2,347.6,522.2,345.5,511,345.5z"/>
		<path class="st7" d="M535,385.6c-4.8,4.3-12.8,6.5-24,6.5H352.3c-11.2,0-19.2-2.2-24-6.5c-4.8-4.3-7.2-10-7.2-17
			c0-6.8,2.4-12.4,7.2-16.7s12.8-6.5,24-6.5h56V232h-37.6c-11.1,0-19.1-2.2-23.9-6.5c-4.9-4.3-7.3-10-7.3-17
			c0-6.8,2.4-12.4,7.2-16.7s12.8-6.5,24-6.5H455v160.1h56c11.2,0,19.2,2.2,24,6.5c4.8,4.3,7.2,10,7.2,17
			C542.2,375.7,539.8,381.3,535,385.6z"/>
	</g>
</g>
<rect x="400.1" y="109" class="st7" width="55.1" height="48.8"/>
<g>
	<rect x="208.5" y="469.9" class="st5" width="461.5" height="32.7"/>
</g>
<g>
	<path class="st7" d="M238.8,425.1v39.7h13.9c2.8,0,4.8,0.5,6,1.6c1.2,1.1,1.8,2.5,1.8,4.2c0,1.7-0.6,3.1-1.8,4.1
		c-1.2,1.1-3.2,1.6-6,1.6h-39.3c-2.8,0-4.8-0.5-6-1.6s-1.8-2.5-1.8-4.2c0-1.7,0.6-3.1,1.8-4.1c1.2-1.1,3.2-1.6,6-1.6h13.9v-28.1H218
		c-2.7,0-4.7-0.5-5.9-1.6c-1.2-1.1-1.8-2.5-1.8-4.2c0-1.7,0.6-3.1,1.8-4.1c1.2-1.1,3.2-1.6,6-1.6H238.8z M237.2,403.2v12.2h-13.8
		v-12.2H237.2z"/>
	<path class="st7" d="M283.4,436.7v23.2c0,2.5,0.5,4.1,1.5,4.9c1.6,1.2,4.4,1.9,8.5,1.9c5.9,0,11.4-1.3,16.4-3.8
		c1.9-1,3.4-1.5,4.5-1.5c1.5,0,2.8,0.6,3.9,1.7c1.1,1.1,1.7,2.5,1.7,4.1c0,1.5-0.6,2.8-1.8,3.9c-1.8,1.8-5.5,3.4-10.9,4.9
		c-5.4,1.5-10,2.2-13.7,2.2c-7.2,0-12.6-1.6-16.2-4.7c-3.6-3.1-5.4-6.9-5.4-11.4v-25.4h-4.2c-2.8,0-4.8-0.5-6-1.6
		c-1.2-1.1-1.8-2.5-1.8-4.2c0-1.7,0.6-3.1,1.8-4.1c1.2-1.1,3.2-1.6,6-1.6h4.2v-10.4c0-2.8,0.5-4.8,1.6-6s2.5-1.8,4.2-1.8
		c1.7,0,3.1,0.6,4.1,1.8s1.6,3.2,1.6,6v10.4h21.4c2.8,0,4.8,0.5,6,1.6c1.2,1.1,1.8,2.5,1.8,4.2c0,1.7-0.6,3.1-1.8,4.1
		c-1.2,1.1-3.2,1.6-6,1.6H283.4z"/>
	<path class="st7" d="M384.8,456.6h-47.4c1.2,3,3.3,5.4,6.4,7.3c3.1,1.8,7.2,2.8,12.4,2.8c4.3,0,10-0.9,17.1-2.8
		c2.9-0.8,5-1.1,6.1-1.1c1.5,0,2.8,0.5,3.9,1.6c1.1,1.1,1.6,2.5,1.6,4.1c0,1.5-0.6,2.8-1.7,3.8c-1.5,1.4-5.2,2.7-11,4
		c-5.8,1.3-11.4,1.9-16.8,1.9c-9.3,0-16.7-2.6-22.2-7.8c-5.5-5.2-8.3-11.7-8.3-19.3c0-8.1,3-14.7,9-19.8c6-5.1,12.9-7.6,20.7-7.6
		c4.7,0,9,0.8,12.9,2.5c3.9,1.7,6.9,3.4,8.8,5.4c2.7,2.8,4.9,6.2,6.7,10.3c1.2,2.9,1.8,6.2,1.8,9.9V456.6z M372,445.1
		c-1.8-3.3-4.1-5.8-6.9-7.4c-2.9-1.6-6.3-2.5-10.2-2.5c-3.9,0-7.3,0.8-10.2,2.5c-2.9,1.6-5.2,4.1-7,7.4H372z"/>
	<path class="st7" d="M420.4,425.1v7.2c4.9-3.5,8.7-5.8,11.5-7c2.8-1.2,5.4-1.7,7.9-1.7c3.8,0,7.4,1.4,10.9,4.2
		c2.4,1.9,3.6,3.8,3.6,5.8c0,1.7-0.6,3.1-1.7,4.2c-1.1,1.1-2.5,1.7-4.1,1.7c-1.4,0-2.9-0.7-4.5-2.1c-1.6-1.4-3-2.1-4.2-2.1
		c-1.6,0-4,1-7.2,3c-3.2,2-7.2,5.1-12,9.1v17.4h16.5c2.8,0,4.8,0.5,6,1.6c1.2,1.1,1.8,2.5,1.8,4.2c0,1.7-0.6,3.1-1.8,4.1
		s-3.2,1.6-6,1.6H402c-2.8,0-4.8-0.5-6-1.6c-1.2-1.1-1.8-2.5-1.8-4.2c0-1.7,0.6-3.1,1.8-4.1c1.2-1.1,3.2-1.6,6-1.6h6.9v-28.1h-4.2
		c-2.8,0-4.8-0.5-6-1.6c-1.2-1.1-1.8-2.5-1.8-4.2c0-1.7,0.6-3.1,1.8-4.1c1.2-1.1,3.2-1.6,6-1.6H420.4z"/>
	<path class="st7" d="M501.4,476.4v-2.7c-2.9,1.5-6.1,2.7-9.6,3.5s-6.7,1.2-9.5,1.2c-6.2,0-11.2-1.6-15.1-4.9
		c-3.9-3.3-5.8-6.9-5.8-10.9c0-4.9,2.5-9.4,7.4-13.5c4.9-4.2,11.8-6.2,20.5-6.2c3.5,0,7.5,0.4,12.1,1.1v-2.8c0-1.7-0.7-3.1-2.2-4.2
		c-1.5-1.1-4.3-1.6-8.5-1.6c-3.4,0-7.9,0.7-13.3,2c-2,0.5-3.6,0.7-4.7,0.7c-1.5,0-2.8-0.6-3.9-1.7c-1.1-1.1-1.6-2.5-1.6-4.3
		c0-1,0.2-1.8,0.6-2.5c0.4-0.7,0.9-1.3,1.6-1.7c0.7-0.4,2.1-0.9,4.2-1.6c2.9-0.8,5.8-1.4,8.7-1.9c3-0.5,5.7-0.7,8.1-0.7
		c7.2,0,12.8,1.6,16.7,4.7c4,3.1,6,7.3,6,12.7v23.8h2c2.8,0,4.8,0.5,6,1.6c1.2,1.1,1.8,2.5,1.8,4.2c0,1.7-0.6,3.1-1.8,4.1
		c-1.2,1.1-3.2,1.6-6,1.6H501.4z M501.4,455.7c-4.6-0.9-8.9-1.4-12.8-1.4c-4.7,0-8.7,1.1-12.1,3.4c-2.1,1.5-3.2,3-3.2,4.5
		c0,1.1,0.5,2,1.5,2.7c1.9,1.2,4.5,1.9,7.7,1.9c2.8,0,5.9-0.5,9.4-1.6c3.5-1.1,6.6-2.6,9.4-4.5V455.7z"/>
	<path class="st7" d="M550.8,457.1v19.2h-13.5c-2.8,0-4.8-0.5-6-1.6s-1.8-2.5-1.8-4.2c0-1.7,0.6-3.1,1.8-4.1
		c1.2-1.1,3.2-1.6,5.9-1.6h2v-50h-2c-2.8,0-4.8-0.5-6-1.6c-1.2-1.1-1.8-2.5-1.8-4.2c0-1.7,0.6-3.1,1.8-4.1c1.2-1.1,3.2-1.6,6-1.6
		h13.5v39l9-7.3c-0.9-1.6-1.4-2.9-1.4-3.9c0-1.7,0.6-3.1,1.7-4.2c1.2-1.1,3.1-1.6,5.9-1.6h13.2c2.8,0,4.8,0.5,6,1.6
		c1.2,1.1,1.8,2.5,1.8,4.2c0,1.7-0.6,3.1-1.8,4.1c-1.2,1.1-3.2,1.6-6,1.6h-3.2l-14,11.4l18.9,16.7h3.4c2.8,0,4.8,0.5,6,1.6
		c1.2,1.1,1.8,2.5,1.8,4.2c0,1.7-0.6,3.1-1.8,4.1c-1.2,1.1-3.2,1.6-6,1.6H571c-2.8,0-4.8-0.5-6-1.6c-1.2-1.1-1.8-2.5-1.8-4.2
		c0-1.5,0.6-2.9,1.9-4.3L553,455.4L550.8,457.1z"/>
	<path class="st7" d="M657.5,456.6h-47.4c1.2,3,3.3,5.4,6.4,7.3c3.1,1.8,7.2,2.8,12.4,2.8c4.3,0,10-0.9,17.1-2.8
		c2.9-0.8,5-1.1,6.1-1.1c1.5,0,2.8,0.5,3.9,1.6c1.1,1.1,1.6,2.5,1.6,4.1c0,1.5-0.6,2.8-1.7,3.8c-1.5,1.4-5.2,2.7-11,4
		c-5.8,1.3-11.4,1.9-16.8,1.9c-9.3,0-16.7-2.6-22.2-7.8c-5.5-5.2-8.3-11.7-8.3-19.3c0-8.1,3-14.7,9-19.8c6-5.1,12.9-7.6,20.7-7.6
		c4.7,0,9,0.8,12.9,2.5c3.9,1.7,6.9,3.4,8.8,5.4c2.7,2.8,4.9,6.2,6.7,10.3c1.2,2.9,1.8,6.2,1.8,9.9V456.6z M644.7,445.1
		c-1.8-3.3-4.1-5.8-6.9-7.4c-2.9-1.6-6.3-2.5-10.2-2.5c-3.9,0-7.3,0.8-10.2,2.5c-2.9,1.6-5.2,4.1-7,7.4H644.7z"/>
</g>
</svg>
